<?xml version="1.0" encoding="UTF-8"?>
<svg xmlns="http://www.w3.org/2000/svg" version="1.1" viewBox="0 0 64 64">
  <defs>
    <style>
      .cls-1 {
        fill: #1d1d1b;
      }
    </style>
  </defs>
  <!-- Generator: Adobe Illustrator 28.7.1, SVG Export Plug-In . SVG Version: 1.2.0 Build 142)  -->
  <g>
    <g id="Capa_1">
      <g>
        <path class="cls-1" d="M14.19,52.36c-4.35,0-7.71-1.21-10.07-3.64s-3.54-5.83-3.54-10.2h5.8c0,2.79.69,4.96,2.08,6.5s3.34,2.32,5.87,2.32,4.35-.77,5.68-2.3,1.99-3.71,1.99-6.51V12.19h5.8v26.33c0,4.39-1.2,7.79-3.6,10.21s-5.74,3.63-10.01,3.63ZM11.85,17.49v-5.3h13v5.3h-13Z"/>
        <path class="cls-1" d="M52.52,52.36c-12.31,0-18.47-6.81-18.47-20.42,0-6.45,1.55-11.45,4.66-14.99s7.49-5.31,13.14-5.31c2.73,0,5.11.43,7.14,1.3s3.51,2.1,4.44,3.7l-4.13,4.1c-.84-1.26-1.9-2.24-3.19-2.93s-2.69-1.03-4.2-1.03c-3.59,0-6.47,1.29-8.63,3.88s-3.25,6.26-3.25,11.02c0,10.38,4.48,15.57,13.45,15.57,2.7,0,5.36-.56,7.98-1.67l1.28,4.91c-3.24,1.26-6.64,1.9-10.21,1.9Z"/>
      </g>
    </g>
  </g>
</svg>