<?xml version="1.0" encoding="UTF-8"?>
<svg id="Capa_1" xmlns="http://www.w3.org/2000/svg" viewBox="0 0 83.43 42.89">
  <defs>
    <style>
      .cls-1 {
        fill: #060606;
      }
    </style>
  </defs>
  <g>
    <path class="cls-1" d="M44.6,24.5c.07-1.08.78-1.94,1.57-2.73,1.24-1.22,2.74-1.88,4.49-1.93.95-.02,1.9-.29,2.87.04.46.15.94-.08,1.33-.37,2.07-1.57,3.4-3.66,4.19-6.11.2-.63.1-1.26-.06-1.89-.39-1.46.15-2.98,1.34-3.89.53-.4,1.03-.35,1.54-.01.52.34,1.07.69.94,1.45-.27,1.52-.54,3.04-.83,4.55-.07.38-.1.57.41.61.96.08,1.71,1.04,1.58,1.87-.15.99-.97,1.69-1.87,1.57-.42-.05-.8-.23-1.07-.55-.27-.32-.41-.29-.62.06-1.05,1.79-2.33,3.39-3.82,4.83-2.31,2.23-4.94,3.96-8,5-1.53.52-3.4-.3-3.88-1.66-.09-.24-.1-.48-.1-.85Z"/>
    <path class="cls-1" d="M14.52,28.97c-1.18.03-1.87-.36-2.12-1.13-.27-.81.24-2.07,1.08-2.64.32-.22.68-.38,1.01-.6.8-.53,1.02-1.3.71-2.21-.42-1.21-1.22-2.13-2.13-2.98-.45-.42-.92-.83-1.32-1.3-.9-1.07-1.1-2.23-.48-3.5,1.49-3.04,3.85-5.08,7.04-6.19.61-.21,1.21-.57,1.89-.26.06.03.12.02.18.05.6.29,1.25.58,1.32,1.33.07.78-.59,1.02-1.15,1.27-1.69.73-3.22,1.75-4.76,2.73-.51.32-.93.76-1.23,1.28-.56.96-.44,1.69.4,2.41,1,.86,1.92,1.8,2.72,2.86,2.26,3.04,1.27,6.23-.89,7.99-.69.56-1.48.89-2.25.88Z"/>
    <path class="cls-1" d="M26.24,24.77c0-.6.02-1.19,0-1.79-.04-.9-.3-1.14-1.18-1.07-.47.04-.94.12-1.41.2-.86.14-1.68.06-2.44-.42-.77-.49-1.02-1.04-.86-1.93.14-.79.7-1.11,1.41-1.28.54-.13,1.1-.13,1.66-.16.43-.03.86-.06,1.29-.14.73-.14,1.06-.55,1.07-1.29,0-.99-.16-1.97-.26-2.95-.06-.55-.14-1.1,0-1.66.3-1.16,1.52-1.52,2.39-.68.83.79,1.32,1.77,1.53,2.9.13.67.17,1.35.18,2.03.03,1.39.12,1.51,1.42,1.93.72.24,1.43.52,2.06.96.3.21.37.38.07.67-.69.65-1.48,1.11-2.41,1.3-1.04.21-1.4.68-1.24,1.75.13.86.04,1.69-.33,2.47-.39.82-1,1.13-1.73.92-.93-.26-1.35-.84-1.21-1.76Z"/>
    <path class="cls-1" d="M34.69,23.01c.1-1.04.06-2.13.33-3.19.28-1.12.89-1.71,1.71-1.57,1.04.17,1.78,1.18,1.66,2.25-.07.59-.35,1.14-.36,1.75,0,.3-.02.61.32.72.34.12.54-.14.71-.37.47-.64.65-1.42,1.01-2.11.13-.26.23-.53.38-.77.5-.8,1.09-1.01,1.81-.66.85.41,1.31,1.29,1.02,2.07-.64,1.7-1.34,3.37-2.62,4.71-.91.96-2,1.48-3.38,1.17-1.7-.39-2.6-2.1-2.59-3.99Z"/>
    <path class="cls-1" d="M66.18,24.13c.04-2.31,1.22-3.41,3.61-3.35,1.46.04,2.73,1.39,2.72,2.89,0,1.71-1.69,3.25-3.5,3.21-1.71-.03-2.87-1.16-2.84-2.75Z"/>
    <path class="cls-1" d="M62.08,22.5c.06,0,.23.02.38.06,1.22.36,2.13,2.27,1.63,3.44-.56,1.32-1.95,1.51-2.84.39-.56-.7-.81-1.52-.79-2.41.01-.95.56-1.47,1.62-1.49Z"/>
  </g>
  <g>
    <path d="M20.73,35.56c-.53,0-.93-.14-1.21-.43-.28-.29-.41-.71-.41-1.26h.51c0,.41.1.71.29.93.19.21.47.32.85.32s.64-.11.82-.32.28-.52.28-.93v-3.23h.5v3.23c0,.55-.14.97-.42,1.26-.28.29-.68.43-1.21.43ZM20.45,31.1v-.47h1.66v.47h-1.66Z"/>
    <path d="M25.22,35.56c-.4,0-.7-.11-.92-.34s-.32-.55-.32-.96v-2.39h.51v2.39c0,.27.07.47.22.61.15.14.36.21.62.21.32,0,.56-.1.73-.29.16-.2.24-.52.24-.98l.18.98h-.22c-.06.24-.19.43-.37.57-.18.13-.41.2-.68.2ZM26.3,34.46v-2.6h.51v2.57l-.51.02ZM26.37,35.52l-.05-.87v-.64s.5,0,.5,0v1.03l.5.05v.39l-.95.03Z"/>
    <path d="M28.47,30.82v-.46h1.19v.46h-1.19ZM30.81,35.56c-.41,0-.72-.11-.92-.33s-.29-.56-.29-1.02v-3.85h.51v3.83c0,.2.03.37.08.5.05.13.14.23.26.29s.29.1.5.1c.19,0,.42-.04.7-.11l.06.46c-.15.05-.3.08-.45.1s-.3.03-.46.03Z"/>
    <path d="M33.35,35.49v-.46h1.51v.46h-1.51ZM33.55,32.33v-.46h1.75v.46h-1.75ZM35.01,31.12c-.11,0-.21-.04-.29-.12s-.12-.18-.12-.29.04-.21.12-.3.18-.12.29-.12.22.04.3.12.12.18.12.3-.04.21-.12.29-.18.12-.3.12ZM34.79,35.49v-3.44h.51v3.44h-.51ZM35.23,35.49v-.46h1.25v.46h-1.25Z"/>
    <path d="M38.94,35.56c-.37,0-.65-.09-.85-.26s-.3-.42-.3-.73c0-.38.14-.67.41-.86.27-.2.67-.29,1.19-.29.24,0,.45.01.65.03s.36.06.48.11l-.09.38c-.15-.05-.32-.07-.51-.08-.19,0-.37-.01-.55-.01-.73,0-1.09.23-1.09.7,0,.19.06.33.19.43s.3.15.53.15c.25,0,.46-.04.64-.13.18-.08.32-.2.42-.33.1-.14.15-.29.15-.45v-.41l.24.93h-.29l.08-.09c0,.19-.07.35-.18.49-.11.14-.27.25-.46.32-.19.08-.41.11-.66.11ZM40.32,35.52l-.05-1.26-.05-.1v-.85c0-.34-.1-.59-.29-.75-.19-.16-.49-.24-.9-.25l-.79-.02.07-.47h.69c.59.02,1.03.15,1.31.4.28.25.42.64.42,1.16v1.65l.62.06v.39l-1.01.03Z"/>
    <path d="M49.28,35.56c-1.48,0-2.22-.83-2.22-2.5,0-.79.19-1.4.56-1.84.37-.43.9-.65,1.58-.65.32,0,.61.05.85.16.24.11.42.26.53.45l-.36.36c-.11-.16-.26-.29-.44-.38-.18-.09-.37-.13-.58-.13-.49,0-.89.17-1.18.52-.3.35-.44.84-.44,1.48,0,1.39.59,2.08,1.78,2.08.36,0,.72-.08,1.07-.23l.12.44c-.4.17-.82.25-1.27.25Z"/>
    <path d="M52.93,35.56c-.37,0-.65-.09-.85-.26-.2-.17-.3-.42-.3-.73,0-.38.14-.67.41-.86s.67-.29,1.19-.29c.24,0,.45.01.65.03s.36.06.48.11l-.09.38c-.15-.05-.32-.07-.51-.08-.19,0-.37-.01-.55-.01-.73,0-1.09.23-1.09.7,0,.19.06.33.19.43s.3.15.53.15c.25,0,.46-.04.64-.13.18-.08.32-.2.42-.33.1-.14.15-.29.15-.45v-.41l.24.93h-.29l.08-.09c0,.19-.07.35-.18.49s-.27.25-.46.32c-.19.08-.41.11-.66.11ZM54.31,35.52l-.05-1.26-.05-.1v-.85c0-.34-.1-.59-.29-.75s-.49-.24-.9-.25l-.79-.02.07-.47h.69c.59.02,1.03.15,1.31.4s.42.64.42,1.16v1.65l.62.06v.39l-1.01.03Z"/>
    <path d="M56.68,35.49v-3.62h.46l.05.77v2.86h-.51ZM59.04,35.49v-2.37c0-.27-.07-.48-.22-.63-.14-.15-.35-.22-.6-.22-.68,0-1.03.39-1.03,1.18l-.22-.92h.26c.05-.24.16-.43.33-.54.17-.12.41-.18.72-.18.4,0,.71.12.93.35s.33.56.33.98v2.36h-.51Z"/>
    <path d="M62.78,35.56c-.49,0-.87-.16-1.14-.49-.27-.33-.4-.79-.4-1.39s.13-1.06.4-1.39c.27-.33.65-.49,1.14-.49s.87.16,1.14.49c.27.33.4.79.4,1.39s-.13,1.06-.4,1.39c-.27.33-.65.49-1.14.49ZM62.78,35.08c.32,0,.57-.12.75-.37s.27-.59.27-1.04-.09-.8-.27-1.04c-.18-.24-.43-.37-.75-.37s-.57.12-.75.37c-.18.24-.27.59-.27,1.04s.09.8.27,1.04.43.37.75.37Z"/>
  </g>
</svg>